<?xml version="1.0" encoding="UTF-8"?>
<!DOCTYPE svg PUBLIC "-//W3C//DTD SVG 1.1//EN" "http://www.w3.org/Graphics/SVG/1.1/DTD/svg11.dtd">
<!-- Creator: CorelDRAW X7 -->
<svg xmlns="http://www.w3.org/2000/svg" xml:space="preserve" width="973.697mm" height="222.378mm" version="1.1" style="shape-rendering:geometricPrecision; text-rendering:geometricPrecision; image-rendering:optimizeQuality; fill-rule:evenodd; clip-rule:evenodd"
viewBox="0 0 18198 4156"
 xmlns:xlink="http://www.w3.org/1999/xlink">
 <defs>
  <style type="text/css">
   <![CDATA[
    .fil6 {fill:none;fill-rule:nonzero}
    .fil3 {fill:#373435;fill-rule:nonzero}
    .fil2 {fill:black;fill-rule:nonzero}
    .fil7 {fill:#00769C;fill-rule:nonzero}
    .fil1 {fill:#00A1C4;fill-rule:nonzero}
    .fil5 {fill:#565656;fill-rule:nonzero}
    .fil0 {fill:#7C7C7C;fill-rule:nonzero}
    .fil4 {fill:#00A1C4;fill-rule:nonzero;fill-opacity:0.521569}
   ]]>
  </style>
 </defs>
 <g id="Capa_x0020_1">
  <metadata id="CorelCorpID_0Corel-Layer"/>
  <path class="fil0" d="M3874 3878c-28,0 -49,9 -61,27 -13,18 -19,48 -19,89 0,36 6,62 18,76 12,15 33,22 62,22l113 0 0 57 -116 0c-26,0 -46,-2 -61,-6 -14,-5 -28,-12 -41,-22 -17,-14 -29,-31 -38,-53 -8,-21 -12,-47 -12,-76 0,-58 12,-101 37,-128 25,-28 64,-42 117,-42l114 0 0 56 -113 0z"/>
  <path class="fil0" d="M4131 3822l73 0 140 327 -77 0 -30 -78 -142 0 -29 78 -73 0 138 -327zm34 65l0 0 -48 126 98 0 -50 -126z"/>
  <path class="fil0" d="M4367 3822l149 0c25,0 45,2 60,4 15,3 27,7 36,13 15,9 26,21 34,37 7,15 11,33 11,53 0,19 -3,36 -9,50 -7,14 -16,26 -29,35 -10,8 -23,13 -37,16 -13,3 -35,5 -63,5l-84 0 0 114 -68 0 0 -327zm148 59l0 0 -80 0 0 96 84 0c21,0 36,-4 46,-12 10,-8 16,-20 16,-36 0,-18 -5,-30 -15,-37 -10,-8 -27,-11 -51,-11z"/>
  <path class="fil0" d="M4769 3822l73 0 139 327 -76 0 -30 -78 -142 0 -29 78 -73 0 138 -327zm34 65l0 0 -48 126 97 0 -49 -126z"/>
  <path class="fil0" d="M5139 3878c-28,0 -49,9 -61,27 -13,18 -19,48 -19,89 0,36 6,62 18,76 12,15 33,22 62,22l113 0 0 57 -116 0c-26,0 -46,-2 -61,-6 -14,-5 -28,-12 -41,-22 -17,-14 -29,-31 -38,-53 -8,-21 -12,-47 -12,-76 0,-58 12,-101 37,-128 25,-28 64,-42 117,-42l114 0 0 56 -113 0z"/>
  <polygon class="fil0" points="5375,4149 5303,4149 5303,3822 5375,3822 "/>
  <polygon class="fil0" points="5514,3880 5409,3880 5409,3823 5692,3823 5692,3880 5585,3880 5585,4149 5514,4149 "/>
  <path class="fil0" d="M5777 3822l73 0 139 327 -76 0 -30 -78 -143 0 -29 78 -73 0 139 -327zm34 65l0 0 -48 126 97 0 -49 -126z"/>
  <path class="fil0" d="M6147 3878c-29,0 -49,9 -62,27 -12,18 -19,48 -19,89 0,36 6,62 18,76 13,15 33,22 63,22l113 0 0 57 -117 0c-25,0 -45,-2 -60,-6 -15,-5 -29,-12 -41,-22 -17,-14 -30,-31 -38,-53 -8,-21 -13,-47 -13,-76 0,-58 13,-101 38,-128 25,-28 64,-42 116,-42l115 0 0 56 -113 0z"/>
  <polygon class="fil0" points="6382,4149 6311,4149 6311,3822 6382,3822 "/>
  <path class="fil0" d="M6429 3982c0,-56 14,-98 41,-125 27,-27 68,-41 123,-41 55,0 96,14 123,41 26,28 39,71 39,129 0,58 -13,100 -39,128 -27,28 -68,42 -123,42 -56,0 -98,-14 -124,-42 -26,-28 -40,-72 -40,-132zm164 -110l0 0c-30,0 -52,9 -67,27 -14,19 -21,47 -21,84 0,40 7,70 21,88 14,19 36,29 67,29 29,0 52,-10 66,-28 14,-19 22,-48 22,-86 0,-39 -8,-68 -22,-86 -14,-19 -37,-28 -66,-28zm7 -144l0 0 66 0 -78 63 -32 0 44 -63z"/>
  <polygon class="fil0" points="6803,3822 6890,3822 7023,4057 7020,3822 7090,3822 7090,4149 7011,4149 6870,3902 6873,4149 6803,4149 "/>
  <path class="fil0" d="M7333 3822l149 0c26,0 46,2 61,4 15,3 27,7 35,13 15,9 27,21 34,37 8,15 12,33 12,53 0,19 -4,36 -10,50 -6,14 -15,26 -28,35 -11,8 -23,13 -37,16 -14,3 -35,5 -64,5l-83 0 0 114 -69 0 0 -327zm149 59l0 0 -80 0 0 96 84 0c20,0 36,-4 46,-12 10,-8 15,-20 15,-36 0,-18 -5,-30 -15,-37 -10,-8 -26,-11 -50,-11z"/>
  <path class="fil0" d="M7671 3822l169 0c40,0 69,8 87,24 19,16 28,41 28,75 0,25 -6,45 -17,61 -12,16 -28,26 -49,31l81 136 -77 0 -72 -128 -81 0 0 128 -69 0 0 -327zm153 59l0 0 -84 0 0 82 84 0c23,0 39,-3 48,-9 9,-7 13,-17 13,-33 0,-14 -4,-25 -13,-31 -9,-6 -25,-9 -48,-9z"/>
  <path class="fil0" d="M7992 3982c0,-56 13,-98 40,-125 27,-27 68,-41 123,-41 55,0 96,14 123,41 26,28 40,71 40,129 0,58 -14,100 -40,128 -27,28 -68,42 -123,42 -56,0 -97,-14 -124,-42 -26,-28 -39,-72 -39,-132zm163 -110l0 0c-30,0 -52,9 -66,27 -15,19 -22,47 -22,84 0,40 7,70 21,88 14,19 36,29 67,29 30,0 52,-10 66,-28 15,-19 22,-48 22,-86 0,-39 -7,-68 -22,-86 -14,-19 -36,-28 -66,-28z"/>
  <path class="fil0" d="M8362 3999c0,-42 3,-72 8,-92 5,-19 14,-35 26,-48 12,-12 29,-21 50,-28 20,-6 46,-9 77,-9l105 0 0 57 -111 0c-29,0 -51,7 -65,19 -13,13 -20,33 -21,61l197 0 0 56 -197 0 0 134 -69 0 0 -150z"/>
  <path class="fil0" d="M8808 3879c-25,0 -43,6 -56,19 -13,12 -20,31 -21,57l190 0 0 57 -190 0c0,29 6,49 18,62 12,12 32,18 59,18l113 0 0 57 -116 0c-26,0 -46,-2 -60,-6 -15,-5 -29,-12 -42,-22 -16,-14 -29,-31 -37,-53 -9,-21 -13,-47 -13,-76 0,-58 13,-101 38,-128 25,-28 63,-42 116,-42l114 0 0 57 -113 0z"/>
  <path class="fil0" d="M9258 3881l-170 0c-18,0 -32,3 -40,10 -9,7 -13,17 -13,32 0,12 4,21 11,27 7,6 18,9 32,9l91 0c38,0 65,7 81,21 16,14 24,38 24,71 0,34 -10,59 -28,75 -18,15 -47,23 -87,23l-183 0 0 -58 172 0c20,0 34,-3 42,-9 8,-5 12,-15 12,-28 0,-14 -4,-23 -11,-29 -7,-6 -20,-9 -38,-9l-81 0c-38,0 -65,-7 -83,-22 -17,-15 -26,-39 -26,-72 0,-34 9,-60 28,-76 18,-16 47,-24 87,-24l180 0 0 59z"/>
  <polygon class="fil0" points="9398,4149 9326,4149 9326,3822 9398,3822 "/>
  <path class="fil0" d="M9444 3982c0,-56 14,-98 41,-125 27,-27 68,-41 123,-41 55,0 96,14 123,41 26,28 39,71 39,129 0,58 -13,100 -39,128 -27,28 -68,42 -123,42 -56,0 -98,-14 -124,-42 -26,-28 -40,-72 -40,-132zm164 -110l0 0c-30,0 -52,9 -66,27 -15,19 -22,47 -22,84 0,40 7,70 21,88 14,19 36,29 67,29 30,0 52,-10 66,-28 15,-19 22,-48 22,-86 0,-39 -7,-68 -22,-86 -14,-19 -36,-28 -66,-28z"/>
  <polygon class="fil0" points="9818,3822 9905,3822 10038,4057 10035,3822 10105,3822 10105,4149 10026,4149 9885,3902 9888,4149 9818,4149 "/>
  <path class="fil0" d="M10266 3822l72 0 140 327 -77 0 -30 -78 -142 0 -29 78 -73 0 139 -327zm33 65l0 0 -47 126 97 0 -50 -126z"/>
  <path class="fil0" d="M10630 4149c-30,0 -53,-2 -68,-7 -14,-6 -28,-14 -39,-27 -11,-11 -19,-24 -23,-38 -5,-15 -7,-35 -7,-60l0 -195 69 0 0 192c0,20 1,33 2,41 2,8 5,14 9,19 7,7 15,13 24,16 10,3 23,5 39,5l81 0 0 54 -87 0z"/>
  <path class="fil0" d="M11065 3879c-25,0 -44,6 -56,19 -13,12 -20,31 -21,57l190 0 0 57 -191 0c1,29 7,49 18,62 12,12 32,18 60,18l113 0 0 57 -116 0c-26,0 -46,-2 -61,-6 -14,-5 -28,-12 -41,-22 -17,-14 -29,-31 -38,-53 -8,-21 -12,-47 -12,-76 0,-58 12,-101 37,-128 25,-28 64,-42 117,-42l114 0 0 57 -113 0z"/>
  <polygon class="fil0" points="11238,3822 11325,3822 11459,4057 11456,3822 11526,3822 11526,4149 11446,4149 11306,3902 11309,4149 11238,4149 "/>
  <path class="fil0" d="M11904 3878c-29,0 -49,9 -62,27 -12,18 -19,48 -19,89 0,36 6,62 18,76 12,15 33,22 63,22l113 0 0 57 -117 0c-25,0 -46,-2 -60,-6 -15,-5 -29,-12 -42,-22 -16,-14 -29,-31 -37,-53 -9,-21 -13,-47 -13,-76 0,-58 13,-101 38,-128 25,-28 64,-42 116,-42l115 0 0 56 -113 0z"/>
  <path class="fil0" d="M12202 3879c-25,0 -44,6 -57,19 -12,12 -19,31 -21,57l191 0 0 57 -191 0c0,29 6,49 18,62 12,12 32,18 60,18l113 0 0 57 -117 0c-25,0 -45,-2 -60,-6 -15,-5 -29,-12 -41,-22 -17,-14 -30,-31 -38,-53 -8,-21 -13,-47 -13,-76 0,-58 13,-101 38,-128 25,-28 64,-42 116,-42l115 0 0 57 -113 0z"/>
  <path class="fil0" d="M12504 4149c-30,0 -53,-2 -68,-7 -14,-6 -28,-14 -39,-27 -11,-11 -19,-24 -23,-38 -5,-15 -7,-35 -7,-60l0 -195 69 0 0 192c0,20 1,33 2,41 2,8 5,14 9,19 7,7 15,13 24,16 10,3 23,5 39,5l81 0 0 54 -87 0z"/>
  <path class="fil0" d="M12687 3822l0 196c0,31 6,52 17,64 11,12 30,18 57,18 27,0 46,-6 57,-18 11,-12 16,-33 16,-64l0 -196 69 0 0 198c0,23 -1,41 -4,55 -3,14 -8,25 -15,33 -13,15 -29,27 -49,34 -20,7 -45,11 -74,11 -29,0 -54,-4 -74,-11 -20,-7 -36,-19 -49,-34 -7,-8 -12,-19 -15,-32 -3,-13 -4,-32 -4,-56l0 -198 68 0z"/>
  <path class="fil0" d="M13100 4149c-31,0 -54,-2 -68,-7 -15,-6 -29,-14 -40,-27 -11,-11 -19,-24 -23,-38 -5,-15 -7,-35 -7,-60l0 -195 69 0 0 192c0,20 1,33 2,41 2,8 5,14 9,19 7,7 15,13 24,16 10,3 23,5 40,5l81 0 0 54 -87 0z"/>
  <path class="fil0" d="M13325 3822l73 0 140 327 -77 0 -30 -78 -142 0 -29 78 -73 0 138 -327zm34 65l0 0 -48 126 98 0 -50 -126z"/>
  <path class="fil0" d="M13561 3822l169 0c39,0 68,8 87,24 18,16 27,41 27,75 0,25 -6,45 -17,61 -11,16 -28,26 -49,31l82 136 -78 0 -72 -128 -81 0 0 128 -68 0 0 -327zm153 59l0 0 -85 0 0 82 85 0c22,0 38,-3 47,-9 9,-7 14,-17 14,-33 0,-14 -5,-25 -14,-31 -8,-6 -24,-9 -47,-9z"/>
  <path class="fil0" d="M14037 3879c-25,0 -44,6 -56,19 -13,12 -20,31 -21,57l190 0 0 57 -191 0c0,29 6,49 18,62 12,12 32,18 60,18l113 0 0 57 -117 0c-25,0 -45,-2 -60,-6 -15,-5 -28,-12 -41,-22 -17,-14 -30,-31 -38,-53 -8,-21 -13,-47 -13,-76 0,-58 13,-101 38,-128 25,-28 64,-42 116,-42l115 0 0 57 -113 0z"/>
  <path class="fil0" d="M14486 3881l-170 0c-18,0 -31,3 -40,10 -8,7 -12,17 -12,32 0,12 3,21 10,27 8,6 19,9 33,9l91 0c37,0 64,7 80,21 16,14 24,38 24,71 0,34 -9,59 -27,75 -19,15 -48,23 -87,23l-183 0 0 -58 172 0c20,0 33,-3 41,-9 8,-5 12,-15 12,-28 0,-14 -3,-23 -11,-29 -7,-6 -20,-9 -37,-9l-82 0c-37,0 -65,-7 -82,-22 -18,-15 -26,-39 -26,-72 0,-34 9,-60 27,-76 18,-16 48,-24 87,-24l180 0 0 59z"/>
  <polygon class="fil0" points="14678,3822 14755,3822 14836,3947 14918,3822 14997,3822 14871,4005 14871,4149 14802,4149 14802,4005 "/>
  <polygon class="fil0" points="15260,3880 15155,3880 15155,3823 15437,3823 15437,3880 15331,3880 15331,4149 15260,4149 "/>
  <path class="fil0" d="M15523 3822l73 0 139 327 -76 0 -30 -78 -143 0 -29 78 -73 0 139 -327zm33 65l0 0 -47 126 97 0 -50 -126z"/>
  <path class="fil0" d="M15938 4149l-180 0 0 -327 168 0c21,0 38,1 52,4 13,2 24,6 32,11 12,8 21,18 27,30 6,12 10,25 10,40 0,19 -4,34 -12,47 -8,13 -20,23 -37,32 17,7 29,16 37,29 8,12 12,27 12,45 0,31 -8,53 -26,68 -18,14 -46,21 -83,21zm-111 -268l0 0 0 76 100 0c16,0 27,-3 34,-10 8,-6 11,-15 11,-28 0,-13 -3,-23 -11,-29 -7,-6 -18,-9 -34,-9l-100 0zm101 210l0 0c16,0 27,-3 35,-9 7,-6 10,-16 10,-29 0,-13 -3,-23 -11,-29 -7,-6 -18,-10 -34,-10l-101 0 0 77 101 0z"/>
  <path class="fil0" d="M16231 4149c-30,0 -53,-2 -68,-7 -14,-6 -28,-14 -39,-27 -11,-11 -19,-24 -23,-38 -5,-15 -7,-35 -7,-60l0 -195 69 0 0 192c0,20 1,33 2,41 2,8 5,14 9,19 7,7 15,13 24,16 10,3 23,5 39,5l81 0 0 54 -87 0z"/>
  <path class="fil0" d="M16490 3879c-25,0 -44,6 -57,19 -12,12 -19,31 -21,57l191 0 0 57 -191 0c0,29 6,49 18,62 12,12 32,18 60,18l113 0 0 57 -117 0c-25,0 -45,-2 -60,-6 -15,-5 -29,-12 -41,-22 -17,-14 -30,-31 -38,-53 -8,-21 -13,-47 -13,-76 0,-58 13,-101 38,-128 25,-28 64,-42 116,-42l115 0 0 57 -113 0z"/>
  <polygon class="fil0" points="16734,3880 16629,3880 16629,3823 16911,3823 16911,3880 16805,3880 16805,4149 16734,4149 "/>
  <path class="fil0" d="M17221 3881l-170 0c-18,0 -31,3 -40,10 -8,7 -13,17 -13,32 0,12 4,21 11,27 8,6 18,9 33,9l91 0c37,0 64,7 80,21 16,14 24,38 24,71 0,34 -9,59 -28,75 -18,15 -47,23 -86,23l-183 0 0 -58 172 0c19,0 33,-3 41,-9 8,-5 12,-15 12,-28 0,-14 -3,-23 -11,-29 -7,-6 -20,-9 -38,-9l-81 0c-37,0 -65,-7 -82,-22 -18,-15 -26,-39 -26,-72 0,-34 9,-60 27,-76 18,-16 47,-24 87,-24l180 0 0 59z"/>
  <path class="fil1" d="M2506 2959l344 1006c5,14 21,22 35,17l599 -204c14,-5 22,-21 17,-36l-343 -1006c-5,-14 -21,-22 -36,-17l-598 204c-15,5 -23,21 -18,36zm666 884l0 0c-24,8 -50,-5 -58,-29 -8,-23 5,-49 28,-57 24,-8 50,5 58,28 8,24 -5,50 -28,58zm-317 -38l0 0 -283 -830 544 -185 143 418 -72 24 -14 5 1 15 16 184 -199 -383 -51 -98 16 110 44 317 -96 -111 -31 -36 -2 47 -6 97 -43 18 63 13 16 4 2 -22 3 -60 107 124 42 50 -9 -65 -37 -272 191 369 44 85 -8 -95 -22 -265 57 -19 128 375 -544 186z"/>
  <path class="fil2" d="M342 1666c0,0 4,-533 349,-788 345,-256 929,-386 1154,-530 189,-121 310,-316 310,-316 0,0 28,336 -26,496 -53,161 -218,283 -218,283 0,0 202,65 402,52 221,-13 377,-124 377,-124 0,0 -27,259 -162,339 -102,60 -212,71 -212,71 0,0 231,30 303,179 71,148 90,286 90,286 0,0 -316,-221 -607,-263 -292,-41 -482,-59 -482,-59 0,0 12,83 131,119 119,36 214,65 214,65 0,0 -321,12 -494,-18 -172,-29 -350,-136 -350,-136 0,0 -660,160 -779,344z"/>
  <path class="fil1" d="M2455 1630c-492,-1 -914,165 -914,165 0,0 -423,-166 -915,-165 -350,0 -626,122 -626,122l0 142c0,0 25,15 77,49 53,33 41,125 41,172 0,46 71,601 604,601 533,0 703,-488 743,-583 41,-95 76,-89 76,-89 0,0 34,-6 75,89 40,95 210,583 743,583 533,0 604,-555 604,-601 0,-47 -12,-139 41,-172 52,-34 77,-49 77,-49l0 -142c0,0 -276,-122 -626,-122zm-1223 687l0 0c-90,183 -356,303 -488,302 -81,0 -305,-30 -428,-202 -123,-172 -141,-435 -55,-592 87,-158 406,-134 545,-122 311,27 504,170 526,240 21,70 -9,191 -100,374zm1533 100l0 0c-122,172 -347,202 -428,202 -132,1 -398,-119 -488,-302 -91,-183 -121,-304 -100,-374 22,-70 215,-213 527,-240 138,-12 457,-36 544,122 86,157 68,420 -55,592z"/>
  <path class="fil3" d="M929 1881c-15,0 -30,2 -45,5 35,26 58,67 58,114 0,79 -64,143 -143,143 -44,0 -84,-20 -111,-52 -1,11 -2,22 -2,33 0,135 109,243 243,243 134,0 243,-108 243,-243 0,-134 -109,-243 -243,-243z"/>
  <path class="fil3" d="M2275 1881c-16,0 -31,2 -45,5 35,26 58,67 58,114 0,79 -64,143 -143,143 -45,0 -85,-20 -111,-52 -1,11 -3,22 -3,33 0,135 109,243 244,243 134,0 243,-108 243,-243 0,-134 -109,-243 -243,-243z"/>
  <path class="fil3" d="M1567 3190c-443,0 -830,-190 -1039,-474 180,330 577,560 1039,560 461,0 858,-230 1038,-560 -209,284 -596,474 -1038,474z"/>
  <path class="fil3" d="M2610 3506c1,5 -23,205 42,238 64,34 139,25 139,25l-74 -249c0,0 93,-44 94,-66 1,-22 -31,-32 -101,0 -69,32 -100,52 -100,52z"/>
  <path class="fil1" d="M333 3795l147 -533c66,-12 122,-60 141,-129 20,-71 -6,-144 -59,-187l-38 135 -140 -39 37 -135c-68,10 -128,59 -147,130 -19,68 4,139 54,183l-148 532c-65,13 -121,61 -140,129 -20,71 6,144 59,188l38 -136 140 39 -38 136c69,-10 128,-60 148,-130 19,-69 -5,-139 -54,-183z"/>
  <polygon class="fil4" points="1546,3295 1546,3295 "/>
  <polygon class="fil4" points="1587,3295 1588,3295 "/>
  <path class="fil2" d="M2584 3509c0,0 -131,44 -224,-9 -93,-54 -151,-187 -249,-204 -56,-10 -222,-9 -356,-6l13 5 38 23 -140 129 -79 -152c-13,0 -20,1 -20,1 0,0 -8,-1 -21,-1l-79 152 -140 -129 38 -23 13 -5c-134,-3 -300,-4 -355,6 -99,17 -157,150 -250,204 -93,53 -224,9 -224,9 0,0 4,47 1,101 -3,54 0,161 0,161 0,0 129,45 267,0 138,-44 215,-122 215,-122l0 388 535 0 534 0 0 -388c0,0 77,78 215,122 138,45 267,0 267,0 0,0 3,-107 0,-161 -3,-54 1,-101 1,-101z"/>
  <path class="fil1" d="M1587 3316l-20 0 -21 0 -52 154c9,5 44,34 44,34l29 0 28 0c0,0 35,-29 44,-34l-52 -154z"/>
  <polygon class="fil1" points="1594,3524 1567,3524 1539,3524 1494,4037 1567,4037 1639,4037 "/>
  <path class="fil3" d="M517 3506c-2,5 22,205 -42,238 -65,34 -136,26 -136,26l70 -251c0,0 -92,-43 -94,-65 -1,-22 31,-32 101,0 70,32 101,52 101,52z"/>
  <path class="fil5" d="M4934 1396c-216,0 -372,68 -467,206 -95,137 -143,363 -143,678 0,272 46,464 137,576 92,111 249,167 473,167l859 0 0 433 -884 0c-195,0 -348,-17 -460,-50 -111,-33 -216,-89 -314,-168 -127,-102 -223,-234 -286,-397 -64,-162 -96,-357 -96,-583 0,-440 95,-764 286,-973 190,-209 485,-313 885,-313l869 0 0 424 -859 0z"/>
  <path class="fil5" d="M6633 1424l-505 0 0 -452 505 0 0 452zm0 2032l0 0 -505 0 0 -1824 505 0 0 1824z"/>
  <path class="fil5" d="M7534 972l0 660 414 0c182,0 329,22 439,65 110,44 205,116 284,216 66,83 116,175 149,276 32,101 49,212 49,332 0,293 -79,522 -235,687 -157,165 -375,248 -654,248l-928 0 0 -2484 482 0zm294 1054l0 0 -294 0 0 1039 331 0c183,0 312,-38 387,-115 74,-78 111,-208 111,-393 0,-191 -40,-327 -122,-408 -82,-82 -220,-123 -413,-123z"/>
  <path class="fil5" d="M9976 3456c-302,0 -531,-77 -686,-231 -155,-154 -232,-380 -232,-680 0,-300 78,-527 233,-681 156,-154 384,-232 685,-232l703 0 0 381 -638 0c-174,0 -292,24 -352,74 -60,50 -93,139 -97,269l1087 0 0 380 -1087 0c4,131 35,220 90,268 56,48 175,72 356,72l641 0 0 380 -703 0z"/>
  <path class="fil5" d="M10986 1632l810 0c189,0 322,34 398,103 76,68 114,187 114,357l0 304 -460 0 0 -235c0,-71 -13,-118 -38,-143 -25,-24 -83,-36 -173,-36l-169 0 0 1474 -482 0 0 -1824z"/>
  <path class="fil1" d="M13687 1396c-217,0 -372,68 -468,206 -95,137 -142,363 -142,678 0,272 45,464 137,576 91,111 248,167 473,167l858 0 0 433 -884 0c-195,0 -348,-17 -459,-50 -112,-33 -217,-89 -315,-168 -127,-102 -222,-234 -286,-397 -64,-162 -96,-357 -96,-583 0,-440 96,-764 286,-973 190,-209 486,-313 886,-313l868 0 0 424 -858 0z"/>
  <path class="fil1" d="M15693 3456c-302,0 -531,-77 -686,-231 -155,-154 -232,-380 -232,-680 0,-300 78,-527 233,-681 156,-154 384,-232 685,-232l703 0 0 381 -637 0c-175,0 -293,24 -353,74 -60,50 -92,139 -97,269l1087 0 0 380 -1087 0c5,131 35,220 90,268 56,48 175,72 356,72l641 0 0 380 -703 0z"/>
  <polygon class="fil1" points="17198,3456 16696,3456 16696,972 17198,972 "/>
  <path class="fil6" d="M7865 3065c183,0 312,-38 387,-115 74,-78 111,-208 111,-393 0,-14 0,-28 0,-42 -280,-5 -556,-11 -829,-18l0 568 331 0z"/>
  <path class="fil2" d="M3849 2841c63,163 159,295 286,397 98,79 203,135 314,168 112,33 265,50 460,50l884 0 0 -433 -859 0c-224,0 -381,-56 -473,-167 -81,-100 -126,-264 -135,-493 -193,-12 -384,-24 -572,-36 6,197 38,369 95,514z"/>
  <path class="fil2" d="M6128 3456l505 0 0 -986c-170,-6 -338,-12 -505,-19l0 1005z"/>
  <path class="fil2" d="M8363 2557c0,185 -37,315 -111,393 -75,77 -204,115 -387,115l-331 0 0 -568c-162,-4 -323,-9 -482,-13l0 972 928 0c279,0 497,-83 654,-248 156,-164 234,-393 235,-685 -170,-2 -339,-5 -506,-8 0,14 0,28 0,42z"/>
  <path class="fil2" d="M9058 2526c0,6 0,13 0,19 0,300 77,526 232,680 155,154 384,231 686,231l703 0 0 -380 -641 0c-181,0 -300,-24 -356,-72 -55,-48 -86,-137 -90,-268l1087 0 0 -202c-68,0 -135,0 -203,0 -479,0 -952,-2 -1418,-8z"/>
  <path class="fil2" d="M10986 3456l482 0 0 -926c-160,2 -321,3 -482,3l0 923z"/>
  <path class="fil7" d="M12601 2841c64,163 159,295 286,397 98,79 203,135 315,168 111,33 264,50 459,50l884 0 0 -433 -858 0c-225,0 -382,-56 -473,-167 -64,-78 -106,-195 -125,-351 -188,4 -377,8 -568,12 15,119 42,227 80,324z"/>
  <path class="fil7" d="M14775 2545c0,300 77,526 232,680 155,154 384,231 686,231l703 0 0 -380 -641 0c-181,0 -300,-24 -356,-72 -55,-48 -85,-137 -90,-268l1087 0 0 -360c-522,30 -1062,55 -1618,77 -2,30 -3,61 -3,92z"/>
  <path class="fil7" d="M16696 3456l502 0 0 -1129c-165,11 -332,21 -502,32l0 1097z"/>
  <path class="fil1" d="M18009 492c16,27 32,53 47,79 77,137 120,285 136,441 8,85 8,169 -2,254 -5,35 -20,63 -54,77 -57,23 -119,-23 -112,-84 12,-95 11,-190 -3,-284 -23,-145 -73,-278 -157,-399 -93,-133 -214,-234 -359,-307 -94,-48 -194,-82 -298,-99 -17,-3 -33,-5 -49,-7 -44,-7 -74,-46 -69,-90 5,-45 43,-77 88,-73 102,10 201,37 297,74 134,53 255,127 362,223 21,18 39,40 62,57 37,46 74,92 111,138z"/>
  <path class="fil1" d="M17727 1242c-18,-22 -23,-43 -21,-66 18,-145 -8,-281 -85,-406 -56,-91 -134,-160 -228,-210 -74,-40 -152,-65 -236,-76 -44,-5 -76,-48 -70,-91 6,-45 46,-76 91,-71 118,13 227,52 329,113 94,56 173,129 235,218 72,104 113,220 129,345 8,66 9,133 -1,200 -5,34 -28,61 -60,69 -35,9 -63,-2 -83,-25z"/>
  <path class="fil1" d="M17450 809c75,100 105,211 90,333 -4,40 -38,69 -75,70 -41,1 -74,-26 -81,-66 -1,-9 0,-18 1,-28 15,-141 -66,-265 -203,-307 -18,-5 -36,-9 -55,-12 -41,-6 -69,-37 -69,-76 0,-40 26,-73 65,-79 25,-4 50,2 75,8 80,20 150,57 211,113 15,14 28,30 41,44z"/>
 </g>
</svg>
