<?xml version="1.0" encoding="UTF-8"?>
<!DOCTYPE svg PUBLIC "-//W3C//DTD SVG 1.1//EN" "http://www.w3.org/Graphics/SVG/1.1/DTD/svg11.dtd">
<!-- Creator: CorelDRAW X7 -->
<svg xmlns="http://www.w3.org/2000/svg" xml:space="preserve" width="522.391mm" height="432.518mm" version="1.1" style="shape-rendering:geometricPrecision; text-rendering:geometricPrecision; image-rendering:optimizeQuality; fill-rule:evenodd; clip-rule:evenodd"
viewBox="0 0 9028 7475"
 xmlns:xlink="http://www.w3.org/1999/xlink">
 <defs>
  <style type="text/css">
   <![CDATA[
    .fil5 {fill:none;fill-rule:nonzero}
    .fil2 {fill:#373435;fill-rule:nonzero}
    .fil1 {fill:black;fill-rule:nonzero}
    .fil6 {fill:#00769C;fill-rule:nonzero}
    .fil0 {fill:#00A1C4;fill-rule:nonzero}
    .fil4 {fill:#565656;fill-rule:nonzero}
    .fil7 {fill:#7C7C7C;fill-rule:nonzero}
    .fil3 {fill:#3B4694;fill-rule:nonzero;fill-opacity:0.521569}
   ]]>
  </style>
 </defs>
 <g id="Capa_x0020_1">
  <metadata id="CorelCorpID_0Corel-Layer"/>
  <path class="fil0" d="M5384 3373l396 1159c6,17 24,26 41,21l690 -235c17,-6 26,-25 20,-42l-395 -1159c-6,-17 -25,-26 -42,-21l-689 236c-17,5 -26,24 -21,41zm767 1019l0 0c-27,9 -57,-5 -66,-33 -9,-27 5,-57 32,-66 28,-9 57,5 67,33 9,27 -5,57 -33,66zm-365 -44l0 0 -326 -956 627 -214 165 482 -83 28 -16 6 1 17 18 212 -229 -441 -59 -113 18 126 51 366 -110 -128 -36 -42 -3 55 -6 112 -49 20 72 16 19 4 1 -25 4 -70 123 144 49 57 -10 -75 -44 -313 221 425 51 98 -10 -110 -25 -305 66 -22 147 432 -627 214z"/>
  <path class="fil1" d="M2890 1884c0,0 5,-615 402,-909 398,-295 1071,-445 1330,-611 218,-139 357,-364 357,-364 0,0 32,387 -29,572 -62,185 -251,325 -251,325 0,0 232,76 462,61 255,-15 435,-143 435,-143 0,0 -31,298 -187,390 -118,70 -245,83 -245,83 0,0 268,34 350,205 82,172 104,331 104,331 0,0 -365,-255 -700,-303 -336,-48 -555,-69 -555,-69 0,0 14,96 151,137 137,41 246,76 246,76 0,0 -370,13 -568,-21 -199,-34 -404,-158 -404,-158 0,0 -761,185 -898,398z"/>
  <path class="fil0" d="M5325 1841c-567,0 -1054,191 -1054,191 0,0 -486,-191 -1054,-191 -404,1 -721,142 -721,142l0 163c0,0 28,17 89,56 61,39 46,145 46,198 0,53 83,693 697,693 614,0 810,-562 857,-672 46,-109 86,-102 86,-102 0,0 40,-7 87,102 46,110 243,672 857,672 614,0 696,-640 696,-693 0,-53 -14,-159 46,-198 61,-39 90,-56 90,-56l0 -163c0,0 -318,-141 -722,-142zm-1409 792l0 0c-104,211 -411,349 -563,349 -94,0 -352,-35 -493,-233 -142,-198 -163,-501 -63,-683 100,-182 467,-154 627,-140 359,31 581,196 606,276 25,81 -10,221 -114,431zm1767 116l0 0c-142,198 -400,233 -494,233 -152,0 -458,-138 -562,-349 -105,-210 -140,-350 -115,-431 25,-80 248,-245 606,-276 160,-14 527,-42 627,140 100,182 80,485 -62,683z"/>
  <path class="fil2" d="M3566 2131c-17,0 -35,2 -51,5 40,30 67,78 67,133 0,90 -74,164 -165,164 -52,0 -98,-23 -128,-60 -2,12 -3,25 -3,38 0,155 126,281 280,281 155,0 281,-126 281,-281 0,-154 -126,-280 -281,-280z"/>
  <path class="fil2" d="M5117 2131c-18,0 -35,2 -52,5 41,30 67,78 67,133 0,90 -73,164 -164,164 -52,0 -98,-23 -128,-60 -2,12 -3,25 -3,38 0,155 125,281 280,281 155,0 280,-126 280,-281 0,-154 -125,-280 -280,-280z"/>
  <path class="fil2" d="M4301 3640c-510,0 -956,-220 -1197,-547 208,381 666,646 1197,646 532,0 989,-265 1197,-646 -241,327 -687,547 -1197,547z"/>
  <path class="fil2" d="M5504 4003c1,7 -26,237 48,276 74,38 161,28 161,28l-86 -288c0,0 107,-49 108,-75 2,-26 -35,-37 -115,0 -81,37 -116,59 -116,59z"/>
  <path class="fil0" d="M2879 4336l170 -613c76,-15 141,-70 163,-149 22,-82 -7,-165 -69,-216l-43 156 -162 -45 43 -156c-78,12 -147,68 -170,150 -22,79 6,160 63,211l-170 614c-76,14 -141,69 -162,148 -23,82 6,166 68,216l43 -156 162 45 -43 156c79,-11 147,-68 170,-150 22,-79 -5,-160 -63,-211z"/>
  <polygon class="fil3" points="4277,3761 4277,3761 "/>
  <polygon class="fil3" points="4325,3761 4325,3761 "/>
  <path class="fil1" d="M5474 4007c0,0 -151,51 -258,-10 -108,-62 -175,-216 -288,-235 -64,-12 -255,-10 -409,-7l14 6 45 26 -162 149 -91 -175c-15,0 -24,1 -24,1 0,0 -9,-1 -24,-1l-91 175 -161 -149 44 -26 15 -6c-155,-3 -346,-5 -410,7 -113,19 -180,173 -287,235 -108,61 -259,10 -259,10 0,0 6,55 2,117 -4,62 0,186 0,186 0,0 148,51 307,0 159,-52 248,-141 248,-141l0 447 616 0 617 0 0 -447c0,0 88,89 247,141 159,51 307,0 307,0 0,0 4,-124 0,-186 -3,-62 2,-117 2,-117z"/>
  <path class="fil0" d="M4325 3785l-24 0 -24 0 -59 177c10,7 50,39 50,39l33 0 33 0c0,0 41,-32 50,-39l-59 -177z"/>
  <polygon class="fil0" points="4333,4025 4301,4025 4270,4025 4218,4616 4301,4616 4384,4616 "/>
  <path class="fil2" d="M3091 4003c-1,7 26,237 -48,276 -74,38 -156,29 -156,29l80 -289c0,0 -106,-49 -108,-75 -1,-26 36,-37 116,0 81,37 116,59 116,59z"/>
  <path class="fil0" d="M8898 4571c10,18 21,36 32,55 53,95 83,197 94,306 6,59 6,117 -1,176 -3,25 -14,44 -38,54 -39,16 -82,-17 -77,-59 8,-66 8,-132 -2,-197 -16,-101 -51,-193 -109,-277 -65,-93 -149,-163 -250,-214 -65,-33 -134,-56 -207,-68 -12,-2 -23,-4 -34,-5 -30,-5 -52,-32 -48,-63 4,-31 30,-53 61,-50 71,6 140,25 206,51 94,36 178,88 252,155 15,13 27,28 43,39 26,32 52,65 78,97z"/>
  <path class="fil0" d="M8702 5092c-13,-16 -17,-30 -15,-47 12,-100 -6,-195 -59,-281 -39,-64 -93,-111 -159,-147 -51,-27 -105,-45 -163,-52 -31,-4 -53,-33 -49,-64 4,-31 31,-52 63,-49 82,9 158,37 229,79 65,39 120,89 163,151 50,72 79,153 89,240 6,46 6,92 0,139 -4,24 -20,42 -42,48 -24,6 -44,-1 -57,-17z"/>
  <path class="fil0" d="M8509 4791c52,69 73,146 63,231 -4,28 -27,48 -53,49 -28,0 -51,-19 -56,-46 -1,-7 0,-13 1,-19 10,-99 -46,-185 -141,-214 -13,-4 -25,-6 -39,-8 -28,-4 -47,-26 -47,-53 -1,-28 18,-51 45,-55 17,-3 35,2 52,6 55,13 104,39 146,78 11,10 20,21 29,31z"/>
  <path class="fil4" d="M734 5150c-135,0 -231,43 -290,128 -60,86 -89,226 -89,421 0,170 28,289 85,358 57,70 155,104 294,104l533 0 0 269 -549 0c-121,0 -216,-10 -285,-31 -70,-21 -135,-55 -196,-104 -79,-63 -138,-145 -178,-247 -39,-101 -59,-222 -59,-362 0,-273 59,-475 177,-605 119,-129 302,-194 551,-194l539 0 0 263 -533 0z"/>
  <path class="fil4" d="M1789 5168l-314 0 0 -281 314 0 0 281zm0 1262l0 0 -314 0 0 -1133 314 0 0 1133z"/>
  <path class="fil4" d="M2349 4887l0 410 257 0c113,0 204,14 273,41 68,27 127,71 176,133 41,52 72,110 93,172 20,63 30,132 30,206 0,182 -49,325 -146,427 -97,103 -233,154 -406,154l-577 0 0 -1543 300 0zm182 655l0 0 -182 0 0 646 205 0c114,0 195,-24 241,-72 46,-48 69,-130 69,-245 0,-118 -25,-202 -76,-253 -51,-51 -136,-76 -257,-76z"/>
  <path class="fil4" d="M3866 6430c-188,0 -330,-48 -426,-143 -96,-96 -144,-237 -144,-423 0,-186 48,-327 144,-423 97,-96 239,-144 426,-144l436 0 0 236 -395 0c-109,0 -182,16 -219,47 -38,30 -58,86 -61,167l675 0 0 236 -675 0c3,81 22,136 57,166 34,30 108,45 221,45l397 0 0 236 -436 0z"/>
  <path class="fil4" d="M4494 5297l502 0c118,0 200,21 248,64 47,42 71,116 71,222l0 189 -286 0 0 -146c0,-44 -8,-74 -24,-89 -15,-15 -51,-22 -107,-22l-105 0 0 915 -299 0 0 -1133z"/>
  <path class="fil0" d="M6171 5150c-134,0 -231,43 -290,128 -59,86 -89,226 -89,421 0,170 29,289 85,358 57,70 155,104 294,104l534 0 0 269 -549 0c-122,0 -217,-10 -286,-31 -69,-21 -134,-55 -195,-104 -79,-63 -139,-145 -178,-247 -40,-101 -60,-222 -60,-362 0,-273 60,-475 178,-605 118,-129 301,-194 550,-194l540 0 0 263 -534 0z"/>
  <path class="fil0" d="M7417 6430c-187,0 -329,-48 -425,-143 -97,-96 -145,-237 -145,-423 0,-186 49,-327 145,-423 97,-96 239,-144 425,-144l437 0 0 236 -396 0c-108,0 -181,16 -218,47 -38,30 -58,86 -61,167l675 0 0 236 -675 0c3,81 22,136 56,166 35,30 109,45 221,45l398 0 0 236 -437 0z"/>
  <polygon class="fil0" points="8353,6430 8041,6430 8041,4887 8353,4887 "/>
  <path class="fil5" d="M2557 6186c114,0 194,-24 240,-72 47,-47 70,-129 70,-243 0,-9 0,-17 -1,-26 -173,-3 -345,-7 -515,-11l0 352 206 0z"/>
  <path class="fil1" d="M59 6047c39,101 99,183 178,246 61,49 126,83 195,104 70,21 165,31 286,31l550 0 0 -268 -534 0c-139,0 -237,-35 -294,-104 -51,-62 -79,-163 -84,-305 -121,-7 -239,-15 -356,-23 4,123 23,229 59,319z"/>
  <path class="fil1" d="M1476 6428l314 0 0 -611c-105,-3 -210,-7 -314,-11l0 622z"/>
  <path class="fil1" d="M2867 5871c0,114 -23,196 -70,243 -46,48 -126,72 -240,72l-206 0 0 -352c-101,-3 -201,-5 -300,-8l0 602 577 0c174,0 310,-51 407,-153 97,-102 146,-244 146,-425 -105,-1 -210,-3 -315,-5 1,9 1,17 1,26z"/>
  <path class="fil1" d="M3299 5852c0,4 0,8 0,12 0,185 48,326 144,421 97,95 239,143 427,143l437 0 0 -236 -399 0c-112,0 -186,-14 -221,-44 -35,-30 -53,-85 -56,-166l676 0 0 -125c-42,0 -84,0 -126,0 -298,0 -592,-2 -882,-5z"/>
  <path class="fil1" d="M4498 6428l300 0 0 -573c-100,0 -200,1 -300,1l0 572z"/>
  <path class="fil6" d="M5501 6047c39,101 98,183 177,246 61,49 126,83 195,104 70,21 165,31 286,31l548 0 0 -268 -533 0c-139,0 -237,-35 -293,-104 -40,-48 -65,-120 -77,-217 -117,3 -235,5 -353,7 10,74 26,141 50,201z"/>
  <path class="fil6" d="M6849 5864c0,185 48,326 145,421 96,95 237,143 425,143l436 0 0 -236 -397 0c-113,0 -187,-14 -221,-44 -35,-30 -53,-85 -56,-166l674 0 0 -223c-324,18 -659,34 -1004,48 -1,18 -2,37 -2,57z"/>
  <path class="fil6" d="M8042 6428l311 0 0 -700c-103,7 -206,14 -311,20l0 680z"/>
  <path class="fil7" d="M925 6753c-27,0 -47,9 -59,26 -12,18 -18,46 -18,86 0,34 6,58 17,72 12,14 32,21 60,21l108 0 0 55 -111 0c-25,0 -44,-2 -58,-6 -14,-5 -27,-12 -40,-22 -16,-12 -28,-29 -36,-49 -8,-21 -12,-46 -12,-74 0,-55 12,-96 36,-123 24,-26 61,-39 112,-39l109 0 0 53 -108 0z"/>
  <path class="fil7" d="M1171 6700l70 0 134 313 -74 0 -28 -75 -136 0 -28 75 -70 0 132 -313zm33 62l0 0 -46 121 93 0 -47 -121z"/>
  <path class="fil7" d="M1397 6700l142 0c25,0 44,1 58,4 14,2 26,6 34,11 15,10 25,21 33,36 7,15 11,32 11,51 0,19 -3,35 -9,48 -6,14 -15,25 -28,33 -10,8 -22,13 -35,16 -13,3 -33,4 -61,4l-80 0 0 110 -65 0 0 -313zm142 56l0 0 -77 0 0 92 81 0c20,0 34,-4 44,-11 10,-8 14,-19 14,-35 0,-17 -4,-29 -14,-36 -9,-7 -25,-10 -48,-10z"/>
  <path class="fil7" d="M1782 6700l70 0 133 313 -73 0 -29 -75 -136 0 -28 75 -69 0 132 -313zm32 62l0 0 -45 121 93 0 -48 -121z"/>
  <path class="fil7" d="M2136 6753c-27,0 -47,9 -59,26 -12,18 -18,46 -18,86 0,34 6,58 18,72 11,14 31,21 59,21l109 0 0 55 -112 0c-24,0 -44,-2 -58,-6 -14,-5 -27,-12 -39,-22 -16,-12 -28,-29 -36,-49 -9,-21 -13,-46 -13,-74 0,-55 12,-96 36,-123 24,-26 62,-39 112,-39l110 0 0 53 -109 0z"/>
  <polygon class="fil7" points="2362,7013 2293,7013 2293,6700 2362,6700 "/>
  <polygon class="fil7" points="2496,6755 2394,6755 2394,6700 2665,6700 2665,6755 2564,6755 2564,7013 2496,7013 "/>
  <path class="fil7" d="M2747 6700l70 0 133 313 -73 0 -29 -75 -136 0 -28 75 -70 0 133 -313zm32 62l0 0 -46 121 94 0 -48 -121z"/>
  <path class="fil7" d="M3101 6753c-27,0 -47,9 -59,26 -12,18 -18,46 -18,86 0,34 6,58 18,72 11,14 31,21 59,21l108 0 0 55 -111 0c-25,0 -44,-2 -58,-6 -14,-5 -27,-12 -40,-22 -16,-12 -28,-29 -36,-49 -8,-21 -12,-46 -12,-74 0,-55 12,-96 36,-123 24,-26 62,-39 112,-39l109 0 0 53 -108 0z"/>
  <polygon class="fil7" points="3327,7013 3258,7013 3258,6700 3327,6700 "/>
  <path class="fil7" d="M3372 6853c0,-54 13,-94 38,-120 26,-26 65,-39 118,-39 53,0 92,13 118,40 25,26 38,67 38,122 0,56 -13,97 -38,124 -26,26 -65,40 -118,40 -54,0 -93,-14 -118,-41 -26,-27 -38,-69 -38,-126zm156 -106l0 0c-28,0 -49,9 -63,27 -14,17 -21,44 -21,80 0,38 7,67 20,85 14,17 35,26 64,26 29,0 50,-8 64,-26 14,-18 21,-46 21,-83 0,-37 -7,-64 -21,-82 -14,-18 -35,-27 -64,-27zm7 -137l0 0 63 0 -74 60 -31 0 42 -60z"/>
  <polygon class="fil7" points="3729,6700 3812,6700 3941,6925 3937,6700 4005,6700 4005,7013 3928,7013 3794,6776 3797,7013 3729,7013 "/>
  <path class="fil7" d="M4237 6700l143 0c24,0 44,1 58,4 14,2 26,6 34,11 14,10 25,21 32,36 8,15 11,32 11,51 0,19 -3,35 -9,48 -5,14 -15,25 -27,33 -10,8 -22,13 -35,16 -13,3 -34,4 -61,4l-80 0 0 110 -66 0 0 -313zm142 56l0 0 -76 0 0 92 80 0c20,0 35,-4 45,-11 9,-8 14,-19 14,-35 0,-17 -5,-29 -14,-36 -9,-7 -26,-10 -49,-10z"/>
  <path class="fil7" d="M4561 6700l162 0c38,0 65,7 83,23 18,15 26,39 26,71 0,24 -5,44 -16,59 -11,15 -26,25 -47,29l78 131 -74 0 -69 -123 -77 0 0 123 -66 0 0 -313zm146 56l0 0 -80 0 0 78 80 0c22,0 38,-3 46,-8 9,-6 13,-17 13,-31 0,-14 -4,-25 -13,-30 -8,-6 -23,-9 -46,-9z"/>
  <path class="fil7" d="M4868 6853c0,-54 13,-94 38,-120 26,-26 65,-39 118,-39 53,0 92,13 118,40 25,26 38,67 38,122 0,56 -13,97 -38,124 -26,26 -65,40 -118,40 -54,0 -93,-14 -118,-41 -26,-27 -38,-69 -38,-126zm156 -106l0 0c-28,0 -49,9 -63,27 -14,17 -21,44 -21,80 0,38 7,67 20,85 14,17 35,26 64,26 29,0 50,-8 64,-26 14,-18 20,-46 20,-83 0,-37 -6,-64 -20,-82 -14,-18 -35,-27 -64,-27z"/>
  <path class="fil7" d="M5223 6869c0,-40 2,-69 7,-88 5,-19 13,-34 25,-46 12,-12 28,-21 47,-26 20,-6 45,-9 75,-9l100 0 0 54 -106 0c-28,0 -49,6 -62,18 -13,12 -20,32 -20,59l188 0 0 54 -188 0 0 128 -66 0 0 -144z"/>
  <path class="fil7" d="M5650 6754c-24,0 -42,6 -54,18 -12,12 -19,30 -20,55l182 0 0 55 -183 0c1,27 6,47 18,59 11,11 30,17 57,17l108 0 0 55 -111 0c-25,0 -44,-2 -58,-6 -14,-5 -27,-12 -40,-22 -16,-12 -28,-29 -36,-49 -8,-21 -12,-46 -12,-74 0,-55 12,-96 36,-123 24,-26 61,-39 112,-39l109 0 0 54 -108 0z"/>
  <path class="fil7" d="M6080 6756l-162 0c-18,0 -31,3 -39,9 -8,7 -12,17 -12,32 0,11 3,19 10,25 7,6 18,9 32,9l87 0c36,0 61,6 77,20 15,14 23,36 23,68 0,32 -9,56 -27,71 -18,15 -45,23 -83,23l-175 0 0 -56 165 0c18,0 32,-3 39,-8 8,-6 12,-15 12,-27 0,-13 -4,-23 -11,-28 -7,-6 -19,-8 -36,-8l-78 0c-36,0 -62,-8 -79,-22 -16,-14 -25,-37 -25,-68 0,-33 9,-58 27,-73 17,-15 45,-23 83,-23l172 0 0 56z"/>
  <polygon class="fil7" points="6214,7013 6145,7013 6145,6700 6214,6700 "/>
  <path class="fil7" d="M6259 6853c0,-54 13,-94 39,-120 25,-26 65,-39 117,-39 53,0 93,13 118,40 26,26 38,67 38,122 0,56 -12,97 -38,124 -25,26 -65,40 -118,40 -53,0 -93,-14 -118,-41 -25,-27 -38,-69 -38,-126zm156 -106l0 0c-28,0 -49,9 -63,27 -14,17 -21,44 -21,80 0,38 7,67 20,85 14,17 35,26 64,26 29,0 50,-8 64,-26 14,-18 21,-46 21,-83 0,-37 -7,-64 -21,-82 -14,-18 -35,-27 -64,-27z"/>
  <polygon class="fil7" points="6616,6700 6700,6700 6828,6925 6825,6700 6892,6700 6892,7013 6815,7013 6681,6776 6684,7013 6616,7013 "/>
  <path class="fil7" d="M7045 6700l70 0 134 313 -74 0 -28 -75 -136 0 -28 75 -70 0 132 -313zm33 62l0 0 -46 121 93 0 -47 -121z"/>
  <path class="fil7" d="M7395 7013c-30,0 -51,-3 -65,-7 -15,-5 -27,-14 -39,-26 -10,-11 -17,-23 -21,-36 -5,-14 -7,-33 -7,-58l0 -186 66 0 0 184c0,18 1,31 2,39 2,7 5,13 9,18 6,7 14,12 23,15 9,3 21,5 37,5l78 0 0 52 -83 0z"/>
  <path class="fil7" d="M7811 6754c-24,0 -42,6 -54,18 -12,12 -19,30 -20,55l182 0 0 55 -183 0c1,27 6,47 18,59 11,11 30,17 57,17l108 0 0 55 -111 0c-25,0 -44,-2 -58,-6 -14,-5 -27,-12 -40,-22 -16,-12 -28,-29 -36,-49 -8,-21 -12,-46 -12,-74 0,-55 12,-96 36,-123 24,-26 61,-39 112,-39l109 0 0 54 -108 0z"/>
  <polygon class="fil7" points="7977,6700 8060,6700 8188,6925 8185,6700 8252,6700 8252,7013 8176,7013 8041,6776 8044,7013 7977,7013 "/>
  <path class="fil7" d="M2042 7212c-27,0 -47,9 -59,26 -12,18 -18,46 -18,86 0,34 6,58 18,72 11,14 31,21 59,21l108 0 0 55 -111 0c-25,0 -44,-2 -58,-6 -14,-5 -27,-12 -40,-22 -16,-12 -28,-29 -36,-50 -8,-20 -12,-45 -12,-73 0,-56 12,-96 36,-123 24,-26 62,-39 112,-39l109 0 0 53 -108 0z"/>
  <path class="fil7" d="M2328 7213c-24,0 -42,6 -54,18 -12,12 -19,30 -20,55l182 0 0 55 -183 0c0,27 6,46 18,58 11,12 30,18 57,18l108 0 0 55 -112 0c-24,0 -43,-2 -57,-6 -14,-5 -28,-12 -40,-22 -16,-12 -28,-29 -36,-50 -8,-20 -12,-45 -12,-73 0,-56 12,-96 36,-123 24,-26 61,-39 111,-39l110 0 0 54 -108 0z"/>
  <path class="fil7" d="M2618 7472c-30,0 -51,-3 -66,-8 -14,-4 -26,-13 -38,-25 -10,-11 -17,-23 -22,-37 -4,-13 -6,-32 -6,-57l0 -186 66 0 0 184c0,18 1,31 2,38 2,8 5,14 9,18 6,8 14,13 23,16 9,3 21,5 37,5l78 0 0 52 -83 0z"/>
  <path class="fil7" d="M2793 7159l0 187c0,29 5,50 16,61 10,12 29,18 54,18 26,0 44,-6 55,-18 10,-11 16,-31 16,-61l0 -187 65 0 0 189c0,22 -1,40 -4,53 -3,13 -8,24 -14,31 -12,15 -28,26 -47,33 -19,7 -43,10 -71,10 -28,0 -51,-3 -70,-10 -20,-7 -35,-18 -48,-33 -6,-7 -11,-17 -13,-30 -3,-13 -5,-31 -5,-54l0 -189 66 0z"/>
  <path class="fil7" d="M3187 7472c-29,0 -51,-3 -65,-8 -14,-4 -27,-13 -38,-25 -10,-11 -18,-23 -22,-37 -4,-13 -6,-32 -6,-57l0 -186 66 0 0 184c0,18 0,31 2,38 2,8 5,14 9,18 6,8 13,13 23,16 9,3 21,5 37,5l78 0 0 52 -84 0z"/>
  <path class="fil7" d="M3404 7159l69 0 134 313 -73 0 -29 -75 -136 0 -28 75 -70 0 133 -313zm32 62l0 0 -46 120 93 0 -47 -120z"/>
  <path class="fil7" d="M3629 7159l162 0c38,0 65,7 83,23 18,15 26,39 26,71 0,24 -5,43 -16,59 -11,15 -26,25 -47,29l78 131 -74 0 -69 -123 -77 0 0 123 -66 0 0 -313zm146 56l0 0 -80 0 0 78 80 0c22,0 37,-3 46,-9 8,-6 13,-16 13,-30 0,-15 -4,-25 -13,-31 -8,-5 -23,-8 -46,-8z"/>
  <path class="fil7" d="M4085 7213c-24,0 -42,6 -54,18 -12,12 -19,30 -20,55l182 0 0 55 -182 0c0,27 5,46 17,58 11,12 30,18 57,18l108 0 0 55 -111 0c-25,0 -44,-2 -58,-6 -14,-5 -27,-12 -40,-22 -16,-12 -28,-29 -36,-50 -8,-20 -12,-45 -12,-73 0,-56 12,-96 36,-123 24,-26 61,-39 112,-39l109 0 0 54 -108 0z"/>
  <path class="fil7" d="M4515 7215l-162 0c-18,0 -31,3 -39,9 -8,7 -12,17 -12,31 0,12 4,20 10,26 7,6 18,9 32,9l87 0c36,0 61,6 77,20 15,14 23,36 23,68 0,32 -9,56 -27,71 -17,15 -45,23 -83,23l-175 0 0 -56 165 0c18,0 32,-3 39,-8 8,-6 12,-15 12,-27 0,-13 -4,-23 -11,-28 -7,-6 -19,-9 -36,-9l-78 0c-36,0 -62,-7 -79,-21 -16,-15 -25,-37 -25,-68 0,-34 9,-58 27,-73 17,-16 45,-23 83,-23l172 0 0 56z"/>
  <polygon class="fil7" points="4699,7159 4773,7159 4850,7278 4928,7159 5005,7159 4884,7334 4884,7472 4818,7472 4818,7334 "/>
  <polygon class="fil7" points="5256,7214 5155,7214 5155,7159 5426,7159 5426,7214 5325,7214 5325,7472 5256,7472 "/>
  <path class="fil7" d="M5508 7159l70 0 133 313 -73 0 -29 -75 -136 0 -28 75 -70 0 133 -313zm32 62l0 0 -46 120 94 0 -48 -120z"/>
  <path class="fil7" d="M5905 7472l-172 0 0 -313 161 0c20,0 37,1 49,3 13,2 23,6 31,11 12,7 20,17 26,28 6,12 9,25 9,39 0,18 -3,33 -11,45 -7,12 -19,22 -35,30 16,7 28,16 36,28 7,11 11,26 11,43 0,30 -8,51 -25,65 -17,14 -44,21 -80,21zm-106 -257l0 0 0 72 96 0c15,0 26,-3 33,-8 7,-6 10,-15 10,-28 0,-12 -3,-21 -10,-27 -7,-6 -18,-9 -33,-9l-96 0zm97 201l0 0c15,0 26,-3 33,-8 7,-6 10,-16 10,-28 0,-13 -3,-22 -10,-28 -7,-6 -18,-9 -33,-9l-97 0 0 73 97 0z"/>
  <path class="fil7" d="M6186 7472c-29,0 -51,-3 -65,-8 -14,-4 -27,-13 -38,-25 -10,-11 -18,-23 -22,-37 -4,-13 -6,-32 -6,-57l0 -186 66 0 0 184c0,18 0,31 2,38 2,8 5,14 8,18 7,8 14,13 23,16 10,3 22,5 38,5l78 0 0 52 -84 0z"/>
  <path class="fil7" d="M6434 7213c-24,0 -42,6 -54,18 -12,12 -19,30 -20,55l182 0 0 55 -183 0c0,27 6,46 18,58 11,12 30,18 57,18l108 0 0 55 -111 0c-25,0 -44,-2 -58,-6 -14,-5 -28,-12 -40,-22 -16,-12 -28,-29 -36,-50 -8,-20 -12,-45 -12,-73 0,-56 12,-96 36,-123 24,-26 61,-39 112,-39l109 0 0 54 -108 0z"/>
  <polygon class="fil7" points="6668,7214 6567,7214 6567,7159 6838,7159 6838,7214 6736,7214 6736,7472 6668,7472 "/>
  <path class="fil7" d="M7134 7215l-162 0c-18,0 -31,3 -39,9 -8,7 -12,17 -12,31 0,12 3,20 10,26 7,6 18,9 31,9l88 0c36,0 61,6 77,20 15,14 22,36 22,68 0,32 -8,56 -26,71 -18,15 -45,23 -83,23l-175 0 0 -56 165 0c18,0 31,-3 39,-8 8,-6 12,-15 12,-27 0,-13 -4,-23 -11,-28 -7,-6 -19,-9 -36,-9l-78 0c-36,0 -62,-7 -79,-21 -17,-15 -25,-37 -25,-68 0,-34 9,-58 26,-73 18,-16 46,-23 84,-23l172 0 0 56z"/>
 </g>
</svg>
